<mxfile host="65bd71144e">
    <diagram id="EI8a2tKzm7_oC9OTLiLI" name="Normal">
        <mxGraphModel dx="1180" dy="572" grid="1" gridSize="10" guides="1" tooltips="1" connect="1" arrows="1" fold="1" page="1" pageScale="1" pageWidth="850" pageHeight="1100" math="0" shadow="0">
            <root>
                <mxCell id="0"/>
                <mxCell id="1" parent="0"/>
                <mxCell id="8" style="edgeStyle=none;html=1;exitX=0.5;exitY=0;exitDx=0;exitDy=0;entryX=0;entryY=1;entryDx=0;entryDy=0;fillColor=#f8cecc;strokeColor=#b85450;strokeWidth=3;" edge="1" parent="1" source="2" target="6">
                    <mxGeometry relative="1" as="geometry"/>
                </mxCell>
                <mxCell id="22" value="BGP 1.1.1.1" style="edgeLabel;html=1;align=center;verticalAlign=middle;resizable=0;points=[];" vertex="1" connectable="0" parent="8">
                    <mxGeometry x="-0.2364" y="-1" relative="1" as="geometry">
                        <mxPoint y="-1" as="offset"/>
                    </mxGeometry>
                </mxCell>
                <mxCell id="2" value="Logbroker A" style="aspect=fixed;perimeter=ellipsePerimeter;html=1;align=center;shadow=0;dashed=0;spacingTop=3;image;image=img/lib/active_directory/generic_server.svg;" vertex="1" parent="1">
                    <mxGeometry x="90" y="360" width="50.4" height="90" as="geometry"/>
                </mxCell>
                <mxCell id="9" style="edgeStyle=none;html=1;exitX=0.5;exitY=0;exitDx=0;exitDy=0;entryX=1;entryY=1;entryDx=0;entryDy=0;fillColor=#f8cecc;strokeColor=#b85450;strokeWidth=3;" edge="1" parent="1" source="3" target="6">
                    <mxGeometry relative="1" as="geometry"/>
                </mxCell>
                <mxCell id="21" value="BGP 1.1.1.1" style="edgeLabel;html=1;align=center;verticalAlign=middle;resizable=0;points=[];" vertex="1" connectable="0" parent="9">
                    <mxGeometry x="-0.2276" y="3" relative="1" as="geometry">
                        <mxPoint as="offset"/>
                    </mxGeometry>
                </mxCell>
                <mxCell id="3" value="Logbroker B" style="aspect=fixed;perimeter=ellipsePerimeter;html=1;align=center;shadow=0;dashed=0;spacingTop=3;image;image=img/lib/active_directory/generic_server.svg;" vertex="1" parent="1">
                    <mxGeometry x="230" y="360" width="50.4" height="90" as="geometry"/>
                </mxCell>
                <mxCell id="6" value="Router Bern" style="image;html=1;image=img/lib/clip_art/networking/Router_Icon_128x128.png" vertex="1" parent="1">
                    <mxGeometry x="150" y="180" width="80" height="80" as="geometry"/>
                </mxCell>
                <mxCell id="17" style="edgeStyle=elbowEdgeStyle;html=1;exitX=0.5;exitY=1;exitDx=0;exitDy=0;fillColor=#d5e8d4;strokeColor=#82b366;strokeWidth=3;" edge="1" parent="1" source="12" target="2">
                    <mxGeometry relative="1" as="geometry">
                        <Array as="points">
                            <mxPoint x="170" y="230"/>
                        </Array>
                    </mxGeometry>
                </mxCell>
                <mxCell id="23" value="http 1.1.1.1" style="edgeLabel;html=1;align=center;verticalAlign=middle;resizable=0;points=[];" vertex="1" connectable="0" parent="17">
                    <mxGeometry x="-0.7608" y="4" relative="1" as="geometry">
                        <mxPoint as="offset"/>
                    </mxGeometry>
                </mxCell>
                <mxCell id="12" value="Client A" style="aspect=fixed;perimeter=ellipsePerimeter;html=1;align=center;shadow=0;dashed=0;spacingTop=3;image;image=img/lib/active_directory/laptop_client.svg;" vertex="1" parent="1">
                    <mxGeometry x="80" y="80" width="45" height="50" as="geometry"/>
                </mxCell>
                <mxCell id="20" style="edgeStyle=elbowEdgeStyle;html=1;exitX=0.5;exitY=1;exitDx=0;exitDy=0;entryX=0;entryY=0.5;entryDx=0;entryDy=0;fillColor=#d5e8d4;strokeColor=#82b366;strokeWidth=3;" edge="1" parent="1" source="13" target="3">
                    <mxGeometry relative="1" as="geometry">
                        <Array as="points">
                            <mxPoint x="200" y="250"/>
                        </Array>
                    </mxGeometry>
                </mxCell>
                <mxCell id="24" value="http 1.1.1.1" style="edgeLabel;html=1;align=center;verticalAlign=middle;resizable=0;points=[];" vertex="1" connectable="0" parent="20">
                    <mxGeometry x="-0.791" y="-2" relative="1" as="geometry">
                        <mxPoint as="offset"/>
                    </mxGeometry>
                </mxCell>
                <mxCell id="13" value="Client B" style="aspect=fixed;perimeter=ellipsePerimeter;html=1;align=center;shadow=0;dashed=0;spacingTop=3;image;image=img/lib/active_directory/laptop_client.svg;" vertex="1" parent="1">
                    <mxGeometry x="260" y="80" width="45" height="50" as="geometry"/>
                </mxCell>
                <mxCell id="25" style="edgeStyle=none;html=1;exitX=0.5;exitY=0;exitDx=0;exitDy=0;entryX=0;entryY=1;entryDx=0;entryDy=0;fillColor=#f8cecc;strokeColor=#b85450;strokeWidth=3;" edge="1" parent="1" source="27" target="31">
                    <mxGeometry relative="1" as="geometry"/>
                </mxCell>
                <mxCell id="26" value="BGP 1.1.1.1" style="edgeLabel;html=1;align=center;verticalAlign=middle;resizable=0;points=[];" vertex="1" connectable="0" parent="25">
                    <mxGeometry x="-0.2364" y="-1" relative="1" as="geometry">
                        <mxPoint y="-1" as="offset"/>
                    </mxGeometry>
                </mxCell>
                <mxCell id="27" value="Logbroker C" style="aspect=fixed;perimeter=ellipsePerimeter;html=1;align=center;shadow=0;dashed=0;spacingTop=3;image;image=img/lib/active_directory/generic_server.svg;" vertex="1" parent="1">
                    <mxGeometry x="480" y="360" width="50.4" height="90" as="geometry"/>
                </mxCell>
                <mxCell id="28" style="edgeStyle=none;html=1;exitX=0.5;exitY=0;exitDx=0;exitDy=0;entryX=1;entryY=1;entryDx=0;entryDy=0;fillColor=#f8cecc;strokeColor=#b85450;strokeWidth=3;" edge="1" parent="1" source="30" target="31">
                    <mxGeometry relative="1" as="geometry"/>
                </mxCell>
                <mxCell id="29" value="BGP 1.1.1.1" style="edgeLabel;html=1;align=center;verticalAlign=middle;resizable=0;points=[];" vertex="1" connectable="0" parent="28">
                    <mxGeometry x="-0.2276" y="3" relative="1" as="geometry">
                        <mxPoint as="offset"/>
                    </mxGeometry>
                </mxCell>
                <mxCell id="30" value="Logbroker D" style="aspect=fixed;perimeter=ellipsePerimeter;html=1;align=center;shadow=0;dashed=0;spacingTop=3;image;image=img/lib/active_directory/generic_server.svg;" vertex="1" parent="1">
                    <mxGeometry x="620" y="360" width="50.4" height="90" as="geometry"/>
                </mxCell>
                <mxCell id="31" value="Router Wettingen" style="image;html=1;image=img/lib/clip_art/networking/Router_Icon_128x128.png" vertex="1" parent="1">
                    <mxGeometry x="540" y="180" width="80" height="80" as="geometry"/>
                </mxCell>
                <mxCell id="32" style="edgeStyle=elbowEdgeStyle;html=1;exitX=0.5;exitY=1;exitDx=0;exitDy=0;fillColor=#d5e8d4;strokeColor=#82b366;strokeWidth=3;" edge="1" parent="1" source="34" target="27">
                    <mxGeometry relative="1" as="geometry">
                        <Array as="points">
                            <mxPoint x="560" y="230"/>
                        </Array>
                    </mxGeometry>
                </mxCell>
                <mxCell id="33" value="http 1.1.1.1" style="edgeLabel;html=1;align=center;verticalAlign=middle;resizable=0;points=[];" vertex="1" connectable="0" parent="32">
                    <mxGeometry x="-0.7608" y="4" relative="1" as="geometry">
                        <mxPoint as="offset"/>
                    </mxGeometry>
                </mxCell>
                <mxCell id="34" value="Client C" style="aspect=fixed;perimeter=ellipsePerimeter;html=1;align=center;shadow=0;dashed=0;spacingTop=3;image;image=img/lib/active_directory/laptop_client.svg;" vertex="1" parent="1">
                    <mxGeometry x="470" y="80" width="45" height="50" as="geometry"/>
                </mxCell>
                <mxCell id="35" style="edgeStyle=elbowEdgeStyle;html=1;exitX=0.5;exitY=1;exitDx=0;exitDy=0;entryX=0;entryY=0.5;entryDx=0;entryDy=0;fillColor=#d5e8d4;strokeColor=#82b366;strokeWidth=3;" edge="1" parent="1" source="37" target="30">
                    <mxGeometry relative="1" as="geometry">
                        <Array as="points">
                            <mxPoint x="590" y="250"/>
                        </Array>
                    </mxGeometry>
                </mxCell>
                <mxCell id="36" value="http 1.1.1.1" style="edgeLabel;html=1;align=center;verticalAlign=middle;resizable=0;points=[];" vertex="1" connectable="0" parent="35">
                    <mxGeometry x="-0.791" y="-2" relative="1" as="geometry">
                        <mxPoint as="offset"/>
                    </mxGeometry>
                </mxCell>
                <mxCell id="37" value="Client D" style="aspect=fixed;perimeter=ellipsePerimeter;html=1;align=center;shadow=0;dashed=0;spacingTop=3;image;image=img/lib/active_directory/laptop_client.svg;" vertex="1" parent="1">
                    <mxGeometry x="650" y="80" width="45" height="50" as="geometry"/>
                </mxCell>
            </root>
        </mxGraphModel>
    </diagram>
    <diagram id="FedBya9HIpv6grr7XVms" name="Failover">
        <mxGraphModel dx="1180" dy="572" grid="1" gridSize="10" guides="1" tooltips="1" connect="1" arrows="1" fold="1" page="1" pageScale="1" pageWidth="850" pageHeight="1100" math="0" shadow="0">
            <root>
                <mxCell id="tK-C1mzfftfeGzsghsxa-0"/>
                <mxCell id="tK-C1mzfftfeGzsghsxa-1" parent="tK-C1mzfftfeGzsghsxa-0"/>
                <mxCell id="uTIh-lXq36wP8ylqYDNo-0" style="edgeStyle=none;html=1;exitX=0.5;exitY=0;exitDx=0;exitDy=0;entryX=0;entryY=1;entryDx=0;entryDy=0;fillColor=#f8cecc;strokeColor=#b85450;strokeWidth=3;" edge="1" parent="tK-C1mzfftfeGzsghsxa-1" source="uTIh-lXq36wP8ylqYDNo-2" target="uTIh-lXq36wP8ylqYDNo-6">
                    <mxGeometry relative="1" as="geometry"/>
                </mxCell>
                <mxCell id="uTIh-lXq36wP8ylqYDNo-1" value="BGP 1.1.1.1" style="edgeLabel;html=1;align=center;verticalAlign=middle;resizable=0;points=[];" vertex="1" connectable="0" parent="uTIh-lXq36wP8ylqYDNo-0">
                    <mxGeometry x="-0.2364" y="-1" relative="1" as="geometry">
                        <mxPoint y="-1" as="offset"/>
                    </mxGeometry>
                </mxCell>
                <mxCell id="uTIh-lXq36wP8ylqYDNo-2" value="Logbroker A" style="aspect=fixed;perimeter=ellipsePerimeter;html=1;align=center;shadow=0;dashed=0;spacingTop=3;image;image=img/lib/active_directory/generic_server.svg;" vertex="1" parent="tK-C1mzfftfeGzsghsxa-1">
                    <mxGeometry x="90" y="360" width="50.4" height="90" as="geometry"/>
                </mxCell>
                <mxCell id="uTIh-lXq36wP8ylqYDNo-3" style="edgeStyle=none;html=1;exitX=0.5;exitY=0;exitDx=0;exitDy=0;entryX=1;entryY=1;entryDx=0;entryDy=0;fillColor=#f8cecc;strokeColor=#b85450;strokeWidth=3;" edge="1" parent="tK-C1mzfftfeGzsghsxa-1" source="uTIh-lXq36wP8ylqYDNo-5" target="uTIh-lXq36wP8ylqYDNo-6">
                    <mxGeometry relative="1" as="geometry"/>
                </mxCell>
                <mxCell id="uTIh-lXq36wP8ylqYDNo-4" value="BGP 1.1.1.1" style="edgeLabel;html=1;align=center;verticalAlign=middle;resizable=0;points=[];" vertex="1" connectable="0" parent="uTIh-lXq36wP8ylqYDNo-3">
                    <mxGeometry x="-0.2276" y="3" relative="1" as="geometry">
                        <mxPoint as="offset"/>
                    </mxGeometry>
                </mxCell>
                <mxCell id="uTIh-lXq36wP8ylqYDNo-5" value="Logbroker B" style="aspect=fixed;perimeter=ellipsePerimeter;html=1;align=center;shadow=0;dashed=0;spacingTop=3;image;image=img/lib/active_directory/generic_server.svg;" vertex="1" parent="tK-C1mzfftfeGzsghsxa-1">
                    <mxGeometry x="230" y="360" width="50.4" height="90" as="geometry"/>
                </mxCell>
                <mxCell id="uTIh-lXq36wP8ylqYDNo-6" value="Router Bern" style="image;html=1;image=img/lib/clip_art/networking/Router_Icon_128x128.png" vertex="1" parent="tK-C1mzfftfeGzsghsxa-1">
                    <mxGeometry x="150" y="180" width="80" height="80" as="geometry"/>
                </mxCell>
                <mxCell id="uTIh-lXq36wP8ylqYDNo-7" style="edgeStyle=elbowEdgeStyle;html=1;exitX=0.5;exitY=1;exitDx=0;exitDy=0;fillColor=#d5e8d4;strokeColor=#82b366;strokeWidth=3;" edge="1" parent="tK-C1mzfftfeGzsghsxa-1" source="uTIh-lXq36wP8ylqYDNo-9" target="uTIh-lXq36wP8ylqYDNo-2">
                    <mxGeometry relative="1" as="geometry">
                        <Array as="points">
                            <mxPoint x="170" y="230"/>
                        </Array>
                    </mxGeometry>
                </mxCell>
                <mxCell id="uTIh-lXq36wP8ylqYDNo-8" value="http 1.1.1.1" style="edgeLabel;html=1;align=center;verticalAlign=middle;resizable=0;points=[];" vertex="1" connectable="0" parent="uTIh-lXq36wP8ylqYDNo-7">
                    <mxGeometry x="-0.7608" y="4" relative="1" as="geometry">
                        <mxPoint as="offset"/>
                    </mxGeometry>
                </mxCell>
                <mxCell id="uTIh-lXq36wP8ylqYDNo-9" value="Client A" style="aspect=fixed;perimeter=ellipsePerimeter;html=1;align=center;shadow=0;dashed=0;spacingTop=3;image;image=img/lib/active_directory/laptop_client.svg;" vertex="1" parent="tK-C1mzfftfeGzsghsxa-1">
                    <mxGeometry x="80" y="80" width="45" height="50" as="geometry"/>
                </mxCell>
                <mxCell id="uTIh-lXq36wP8ylqYDNo-10" style="edgeStyle=elbowEdgeStyle;html=1;exitX=0.5;exitY=1;exitDx=0;exitDy=0;entryX=0;entryY=0.5;entryDx=0;entryDy=0;fillColor=#d5e8d4;strokeColor=#82b366;strokeWidth=3;" edge="1" parent="tK-C1mzfftfeGzsghsxa-1" source="uTIh-lXq36wP8ylqYDNo-12" target="uTIh-lXq36wP8ylqYDNo-5">
                    <mxGeometry relative="1" as="geometry">
                        <Array as="points">
                            <mxPoint x="200" y="250"/>
                        </Array>
                    </mxGeometry>
                </mxCell>
                <mxCell id="uTIh-lXq36wP8ylqYDNo-11" value="http 1.1.1.1" style="edgeLabel;html=1;align=center;verticalAlign=middle;resizable=0;points=[];" vertex="1" connectable="0" parent="uTIh-lXq36wP8ylqYDNo-10">
                    <mxGeometry x="-0.791" y="-2" relative="1" as="geometry">
                        <mxPoint as="offset"/>
                    </mxGeometry>
                </mxCell>
                <mxCell id="uTIh-lXq36wP8ylqYDNo-12" value="Client B" style="aspect=fixed;perimeter=ellipsePerimeter;html=1;align=center;shadow=0;dashed=0;spacingTop=3;image;image=img/lib/active_directory/laptop_client.svg;" vertex="1" parent="tK-C1mzfftfeGzsghsxa-1">
                    <mxGeometry x="260" y="80" width="45" height="50" as="geometry"/>
                </mxCell>
                <mxCell id="uTIh-lXq36wP8ylqYDNo-13" style="edgeStyle=none;html=1;exitX=0.5;exitY=0;exitDx=0;exitDy=0;entryX=0;entryY=1;entryDx=0;entryDy=0;fillColor=#f8cecc;strokeColor=#b85450;strokeWidth=3;" edge="1" parent="tK-C1mzfftfeGzsghsxa-1" source="uTIh-lXq36wP8ylqYDNo-15" target="uTIh-lXq36wP8ylqYDNo-19">
                    <mxGeometry relative="1" as="geometry"/>
                </mxCell>
                <mxCell id="uTIh-lXq36wP8ylqYDNo-14" value="BGP 1.1.1.1" style="edgeLabel;html=1;align=center;verticalAlign=middle;resizable=0;points=[];" vertex="1" connectable="0" parent="uTIh-lXq36wP8ylqYDNo-13">
                    <mxGeometry x="-0.2364" y="-1" relative="1" as="geometry">
                        <mxPoint y="-1" as="offset"/>
                    </mxGeometry>
                </mxCell>
                <mxCell id="uTIh-lXq36wP8ylqYDNo-15" value="Logbroker C" style="aspect=fixed;perimeter=ellipsePerimeter;html=1;align=center;shadow=0;dashed=0;spacingTop=3;image;image=img/lib/active_directory/generic_server.svg;" vertex="1" parent="tK-C1mzfftfeGzsghsxa-1">
                    <mxGeometry x="480" y="360" width="50.4" height="90" as="geometry"/>
                </mxCell>
                <mxCell id="uTIh-lXq36wP8ylqYDNo-16" style="edgeStyle=none;html=1;exitX=0.5;exitY=0;exitDx=0;exitDy=0;entryX=1;entryY=1;entryDx=0;entryDy=0;fillColor=#f8cecc;strokeColor=#b85450;strokeWidth=3;" edge="1" parent="tK-C1mzfftfeGzsghsxa-1" source="uTIh-lXq36wP8ylqYDNo-18" target="uTIh-lXq36wP8ylqYDNo-19">
                    <mxGeometry relative="1" as="geometry"/>
                </mxCell>
                <mxCell id="uTIh-lXq36wP8ylqYDNo-17" value="BGP 1.1.1.1" style="edgeLabel;html=1;align=center;verticalAlign=middle;resizable=0;points=[];" vertex="1" connectable="0" parent="uTIh-lXq36wP8ylqYDNo-16">
                    <mxGeometry x="-0.2276" y="3" relative="1" as="geometry">
                        <mxPoint as="offset"/>
                    </mxGeometry>
                </mxCell>
                <mxCell id="uTIh-lXq36wP8ylqYDNo-18" value="Logbroker D" style="aspect=fixed;perimeter=ellipsePerimeter;html=1;align=center;shadow=0;dashed=0;spacingTop=3;image;image=img/lib/active_directory/generic_server.svg;" vertex="1" parent="tK-C1mzfftfeGzsghsxa-1">
                    <mxGeometry x="620" y="360" width="50.4" height="90" as="geometry"/>
                </mxCell>
                <mxCell id="uTIh-lXq36wP8ylqYDNo-19" value="Router Wettingen" style="image;html=1;image=img/lib/clip_art/networking/Router_Icon_128x128.png" vertex="1" parent="tK-C1mzfftfeGzsghsxa-1">
                    <mxGeometry x="540" y="180" width="80" height="80" as="geometry"/>
                </mxCell>
                <mxCell id="uTIh-lXq36wP8ylqYDNo-20" style="edgeStyle=elbowEdgeStyle;html=1;exitX=0.5;exitY=1;exitDx=0;exitDy=0;fillColor=#d5e8d4;strokeColor=#82b366;strokeWidth=3;entryX=0;entryY=0.5;entryDx=0;entryDy=0;" edge="1" parent="tK-C1mzfftfeGzsghsxa-1" source="uTIh-lXq36wP8ylqYDNo-22" target="uTIh-lXq36wP8ylqYDNo-18">
                    <mxGeometry relative="1" as="geometry">
                        <Array as="points">
                            <mxPoint x="560" y="230"/>
                        </Array>
                    </mxGeometry>
                </mxCell>
                <mxCell id="uTIh-lXq36wP8ylqYDNo-21" value="http 1.1.1.1" style="edgeLabel;html=1;align=center;verticalAlign=middle;resizable=0;points=[];" vertex="1" connectable="0" parent="uTIh-lXq36wP8ylqYDNo-20">
                    <mxGeometry x="-0.7608" y="4" relative="1" as="geometry">
                        <mxPoint as="offset"/>
                    </mxGeometry>
                </mxCell>
                <mxCell id="uTIh-lXq36wP8ylqYDNo-22" value="Client C" style="aspect=fixed;perimeter=ellipsePerimeter;html=1;align=center;shadow=0;dashed=0;spacingTop=3;image;image=img/lib/active_directory/laptop_client.svg;" vertex="1" parent="tK-C1mzfftfeGzsghsxa-1">
                    <mxGeometry x="470" y="80" width="45" height="50" as="geometry"/>
                </mxCell>
                <mxCell id="uTIh-lXq36wP8ylqYDNo-23" style="edgeStyle=elbowEdgeStyle;html=1;exitX=0.5;exitY=1;exitDx=0;exitDy=0;entryX=0;entryY=0.5;entryDx=0;entryDy=0;fillColor=#d5e8d4;strokeColor=#82b366;strokeWidth=3;" edge="1" parent="tK-C1mzfftfeGzsghsxa-1" source="uTIh-lXq36wP8ylqYDNo-25" target="uTIh-lXq36wP8ylqYDNo-18">
                    <mxGeometry relative="1" as="geometry">
                        <Array as="points">
                            <mxPoint x="590" y="250"/>
                        </Array>
                    </mxGeometry>
                </mxCell>
                <mxCell id="uTIh-lXq36wP8ylqYDNo-24" value="http 1.1.1.1" style="edgeLabel;html=1;align=center;verticalAlign=middle;resizable=0;points=[];" vertex="1" connectable="0" parent="uTIh-lXq36wP8ylqYDNo-23">
                    <mxGeometry x="-0.791" y="-2" relative="1" as="geometry">
                        <mxPoint as="offset"/>
                    </mxGeometry>
                </mxCell>
                <mxCell id="uTIh-lXq36wP8ylqYDNo-25" value="Client D" style="aspect=fixed;perimeter=ellipsePerimeter;html=1;align=center;shadow=0;dashed=0;spacingTop=3;image;image=img/lib/active_directory/laptop_client.svg;" vertex="1" parent="tK-C1mzfftfeGzsghsxa-1">
                    <mxGeometry x="650" y="80" width="45" height="50" as="geometry"/>
                </mxCell>
                <mxCell id="uTIh-lXq36wP8ylqYDNo-26" value="" style="shape=cross;whiteSpace=wrap;html=1;rotation=45;fillColor=#F80029;strokeColor=#FC0D0D;" vertex="1" parent="tK-C1mzfftfeGzsghsxa-1">
                    <mxGeometry x="460" y="365" width="80" height="80" as="geometry"/>
                </mxCell>
            </root>
        </mxGraphModel>
    </diagram>
    <diagram name="Failover Wet" id="yX2GskHWiY3M9MEZNIIm">
        <mxGraphModel dx="1180" dy="572" grid="1" gridSize="10" guides="1" tooltips="1" connect="1" arrows="1" fold="1" page="1" pageScale="1" pageWidth="850" pageHeight="1100" math="0" shadow="0">
            <root>
                <mxCell id="Ct9n-sNewZhYpK1-HqBp-0"/>
                <mxCell id="Ct9n-sNewZhYpK1-HqBp-1" parent="Ct9n-sNewZhYpK1-HqBp-0"/>
                <mxCell id="Ct9n-sNewZhYpK1-HqBp-2" style="edgeStyle=none;html=1;exitX=0.5;exitY=0;exitDx=0;exitDy=0;entryX=0;entryY=1;entryDx=0;entryDy=0;fillColor=#f8cecc;strokeColor=#b85450;strokeWidth=3;" edge="1" parent="Ct9n-sNewZhYpK1-HqBp-1" source="Ct9n-sNewZhYpK1-HqBp-4" target="Ct9n-sNewZhYpK1-HqBp-8">
                    <mxGeometry relative="1" as="geometry"/>
                </mxCell>
                <mxCell id="Ct9n-sNewZhYpK1-HqBp-3" value="BGP 1.1.1.1" style="edgeLabel;html=1;align=center;verticalAlign=middle;resizable=0;points=[];" vertex="1" connectable="0" parent="Ct9n-sNewZhYpK1-HqBp-2">
                    <mxGeometry x="-0.2364" y="-1" relative="1" as="geometry">
                        <mxPoint y="-1" as="offset"/>
                    </mxGeometry>
                </mxCell>
                <mxCell id="Ct9n-sNewZhYpK1-HqBp-4" value="Logbroker A" style="aspect=fixed;perimeter=ellipsePerimeter;html=1;align=center;shadow=0;dashed=0;spacingTop=3;image;image=img/lib/active_directory/generic_server.svg;" vertex="1" parent="Ct9n-sNewZhYpK1-HqBp-1">
                    <mxGeometry x="90" y="360" width="50.4" height="90" as="geometry"/>
                </mxCell>
                <mxCell id="Ct9n-sNewZhYpK1-HqBp-5" style="edgeStyle=none;html=1;exitX=0.5;exitY=0;exitDx=0;exitDy=0;entryX=1;entryY=1;entryDx=0;entryDy=0;fillColor=#f8cecc;strokeColor=#b85450;strokeWidth=3;" edge="1" parent="Ct9n-sNewZhYpK1-HqBp-1" source="Ct9n-sNewZhYpK1-HqBp-7" target="Ct9n-sNewZhYpK1-HqBp-8">
                    <mxGeometry relative="1" as="geometry"/>
                </mxCell>
                <mxCell id="Ct9n-sNewZhYpK1-HqBp-6" value="BGP 1.1.1.1" style="edgeLabel;html=1;align=center;verticalAlign=middle;resizable=0;points=[];" vertex="1" connectable="0" parent="Ct9n-sNewZhYpK1-HqBp-5">
                    <mxGeometry x="-0.2276" y="3" relative="1" as="geometry">
                        <mxPoint as="offset"/>
                    </mxGeometry>
                </mxCell>
                <mxCell id="Ct9n-sNewZhYpK1-HqBp-7" value="Logbroker B" style="aspect=fixed;perimeter=ellipsePerimeter;html=1;align=center;shadow=0;dashed=0;spacingTop=3;image;image=img/lib/active_directory/generic_server.svg;" vertex="1" parent="Ct9n-sNewZhYpK1-HqBp-1">
                    <mxGeometry x="230" y="360" width="50.4" height="90" as="geometry"/>
                </mxCell>
                <mxCell id="Ct9n-sNewZhYpK1-HqBp-8" value="Router Bern" style="image;html=1;image=img/lib/clip_art/networking/Router_Icon_128x128.png" vertex="1" parent="Ct9n-sNewZhYpK1-HqBp-1">
                    <mxGeometry x="150" y="180" width="80" height="80" as="geometry"/>
                </mxCell>
                <mxCell id="Ct9n-sNewZhYpK1-HqBp-9" style="edgeStyle=elbowEdgeStyle;html=1;exitX=0.5;exitY=1;exitDx=0;exitDy=0;fillColor=#d5e8d4;strokeColor=#82b366;strokeWidth=3;" edge="1" parent="Ct9n-sNewZhYpK1-HqBp-1" source="Ct9n-sNewZhYpK1-HqBp-11" target="Ct9n-sNewZhYpK1-HqBp-4">
                    <mxGeometry relative="1" as="geometry">
                        <Array as="points">
                            <mxPoint x="170" y="230"/>
                        </Array>
                    </mxGeometry>
                </mxCell>
                <mxCell id="Ct9n-sNewZhYpK1-HqBp-10" value="http 1.1.1.1" style="edgeLabel;html=1;align=center;verticalAlign=middle;resizable=0;points=[];" vertex="1" connectable="0" parent="Ct9n-sNewZhYpK1-HqBp-9">
                    <mxGeometry x="-0.7608" y="4" relative="1" as="geometry">
                        <mxPoint as="offset"/>
                    </mxGeometry>
                </mxCell>
                <mxCell id="Ct9n-sNewZhYpK1-HqBp-11" value="Client A" style="aspect=fixed;perimeter=ellipsePerimeter;html=1;align=center;shadow=0;dashed=0;spacingTop=3;image;image=img/lib/active_directory/laptop_client.svg;" vertex="1" parent="Ct9n-sNewZhYpK1-HqBp-1">
                    <mxGeometry x="80" y="80" width="45" height="50" as="geometry"/>
                </mxCell>
                <mxCell id="Ct9n-sNewZhYpK1-HqBp-12" style="edgeStyle=elbowEdgeStyle;html=1;exitX=0.5;exitY=1;exitDx=0;exitDy=0;entryX=0;entryY=0.5;entryDx=0;entryDy=0;fillColor=#d5e8d4;strokeColor=#82b366;strokeWidth=3;" edge="1" parent="Ct9n-sNewZhYpK1-HqBp-1" source="Ct9n-sNewZhYpK1-HqBp-14" target="Ct9n-sNewZhYpK1-HqBp-7">
                    <mxGeometry relative="1" as="geometry">
                        <Array as="points">
                            <mxPoint x="200" y="250"/>
                        </Array>
                    </mxGeometry>
                </mxCell>
                <mxCell id="Ct9n-sNewZhYpK1-HqBp-13" value="http 1.1.1.1" style="edgeLabel;html=1;align=center;verticalAlign=middle;resizable=0;points=[];" vertex="1" connectable="0" parent="Ct9n-sNewZhYpK1-HqBp-12">
                    <mxGeometry x="-0.791" y="-2" relative="1" as="geometry">
                        <mxPoint as="offset"/>
                    </mxGeometry>
                </mxCell>
                <mxCell id="Ct9n-sNewZhYpK1-HqBp-14" value="Client B" style="aspect=fixed;perimeter=ellipsePerimeter;html=1;align=center;shadow=0;dashed=0;spacingTop=3;image;image=img/lib/active_directory/laptop_client.svg;" vertex="1" parent="Ct9n-sNewZhYpK1-HqBp-1">
                    <mxGeometry x="260" y="80" width="45" height="50" as="geometry"/>
                </mxCell>
                <mxCell id="Ct9n-sNewZhYpK1-HqBp-15" style="edgeStyle=none;html=1;exitX=0.5;exitY=0;exitDx=0;exitDy=0;entryX=0;entryY=1;entryDx=0;entryDy=0;fillColor=#f8cecc;strokeColor=#b85450;strokeWidth=3;" edge="1" parent="Ct9n-sNewZhYpK1-HqBp-1" source="Ct9n-sNewZhYpK1-HqBp-17" target="Ct9n-sNewZhYpK1-HqBp-21">
                    <mxGeometry relative="1" as="geometry"/>
                </mxCell>
                <mxCell id="Ct9n-sNewZhYpK1-HqBp-16" value="BGP 1.1.1.1" style="edgeLabel;html=1;align=center;verticalAlign=middle;resizable=0;points=[];" vertex="1" connectable="0" parent="Ct9n-sNewZhYpK1-HqBp-15">
                    <mxGeometry x="-0.2364" y="-1" relative="1" as="geometry">
                        <mxPoint y="-1" as="offset"/>
                    </mxGeometry>
                </mxCell>
                <mxCell id="Ct9n-sNewZhYpK1-HqBp-17" value="Logbroker C" style="aspect=fixed;perimeter=ellipsePerimeter;html=1;align=center;shadow=0;dashed=0;spacingTop=3;image;image=img/lib/active_directory/generic_server.svg;" vertex="1" parent="Ct9n-sNewZhYpK1-HqBp-1">
                    <mxGeometry x="480" y="360" width="50.4" height="90" as="geometry"/>
                </mxCell>
                <mxCell id="Ct9n-sNewZhYpK1-HqBp-18" style="edgeStyle=none;html=1;exitX=0.5;exitY=0;exitDx=0;exitDy=0;entryX=1;entryY=1;entryDx=0;entryDy=0;fillColor=#f8cecc;strokeColor=#b85450;strokeWidth=3;" edge="1" parent="Ct9n-sNewZhYpK1-HqBp-1" source="Ct9n-sNewZhYpK1-HqBp-20" target="Ct9n-sNewZhYpK1-HqBp-21">
                    <mxGeometry relative="1" as="geometry"/>
                </mxCell>
                <mxCell id="Ct9n-sNewZhYpK1-HqBp-19" value="BGP 1.1.1.1" style="edgeLabel;html=1;align=center;verticalAlign=middle;resizable=0;points=[];" vertex="1" connectable="0" parent="Ct9n-sNewZhYpK1-HqBp-18">
                    <mxGeometry x="-0.2276" y="3" relative="1" as="geometry">
                        <mxPoint as="offset"/>
                    </mxGeometry>
                </mxCell>
                <mxCell id="Ct9n-sNewZhYpK1-HqBp-20" value="Logbroker D" style="aspect=fixed;perimeter=ellipsePerimeter;html=1;align=center;shadow=0;dashed=0;spacingTop=3;image;image=img/lib/active_directory/generic_server.svg;" vertex="1" parent="Ct9n-sNewZhYpK1-HqBp-1">
                    <mxGeometry x="620" y="360" width="50.4" height="90" as="geometry"/>
                </mxCell>
                <mxCell id="Ct9n-sNewZhYpK1-HqBp-21" value="Router Wettingen" style="image;html=1;image=img/lib/clip_art/networking/Router_Icon_128x128.png" vertex="1" parent="Ct9n-sNewZhYpK1-HqBp-1">
                    <mxGeometry x="540" y="180" width="80" height="80" as="geometry"/>
                </mxCell>
                <mxCell id="Ct9n-sNewZhYpK1-HqBp-22" style="edgeStyle=elbowEdgeStyle;html=1;exitX=0.5;exitY=1;exitDx=0;exitDy=0;fillColor=#d5e8d4;strokeColor=#82b366;strokeWidth=3;entryX=1;entryY=0.5;entryDx=0;entryDy=0;" edge="1" parent="Ct9n-sNewZhYpK1-HqBp-1" source="Ct9n-sNewZhYpK1-HqBp-24" target="Ct9n-sNewZhYpK1-HqBp-4">
                    <mxGeometry relative="1" as="geometry">
                        <Array as="points">
                            <mxPoint x="170" y="270"/>
                        </Array>
                        <mxPoint x="150" y="405" as="targetPoint"/>
                    </mxGeometry>
                </mxCell>
                <mxCell id="Ct9n-sNewZhYpK1-HqBp-23" value="http 1.1.1.1" style="edgeLabel;html=1;align=center;verticalAlign=middle;resizable=0;points=[];" vertex="1" connectable="0" parent="Ct9n-sNewZhYpK1-HqBp-22">
                    <mxGeometry x="-0.7608" y="4" relative="1" as="geometry">
                        <mxPoint as="offset"/>
                    </mxGeometry>
                </mxCell>
                <mxCell id="Ct9n-sNewZhYpK1-HqBp-24" value="Client C" style="aspect=fixed;perimeter=ellipsePerimeter;html=1;align=center;shadow=0;dashed=0;spacingTop=3;image;image=img/lib/active_directory/laptop_client.svg;" vertex="1" parent="Ct9n-sNewZhYpK1-HqBp-1">
                    <mxGeometry x="470" y="80" width="45" height="50" as="geometry"/>
                </mxCell>
                <mxCell id="Ct9n-sNewZhYpK1-HqBp-25" style="edgeStyle=elbowEdgeStyle;html=1;exitX=0.5;exitY=1;exitDx=0;exitDy=0;fillColor=#d5e8d4;strokeColor=#82b366;strokeWidth=3;" edge="1" parent="Ct9n-sNewZhYpK1-HqBp-1" source="Ct9n-sNewZhYpK1-HqBp-27">
                    <mxGeometry relative="1" as="geometry">
                        <Array as="points">
                            <mxPoint x="200" y="290"/>
                        </Array>
                        <mxPoint x="230" y="405" as="targetPoint"/>
                    </mxGeometry>
                </mxCell>
                <mxCell id="Ct9n-sNewZhYpK1-HqBp-26" value="http 1.1.1.1" style="edgeLabel;html=1;align=center;verticalAlign=middle;resizable=0;points=[];" vertex="1" connectable="0" parent="Ct9n-sNewZhYpK1-HqBp-25">
                    <mxGeometry x="-0.791" y="-2" relative="1" as="geometry">
                        <mxPoint as="offset"/>
                    </mxGeometry>
                </mxCell>
                <mxCell id="Ct9n-sNewZhYpK1-HqBp-27" value="Client D" style="aspect=fixed;perimeter=ellipsePerimeter;html=1;align=center;shadow=0;dashed=0;spacingTop=3;image;image=img/lib/active_directory/laptop_client.svg;" vertex="1" parent="Ct9n-sNewZhYpK1-HqBp-1">
                    <mxGeometry x="650" y="80" width="45" height="50" as="geometry"/>
                </mxCell>
                <mxCell id="Ct9n-sNewZhYpK1-HqBp-28" value="" style="shape=cross;whiteSpace=wrap;html=1;rotation=45;fillColor=#F80029;strokeColor=#FC0D0D;" vertex="1" parent="Ct9n-sNewZhYpK1-HqBp-1">
                    <mxGeometry x="460" y="365" width="80" height="80" as="geometry"/>
                </mxCell>
                <mxCell id="Ct9n-sNewZhYpK1-HqBp-30" value="" style="shape=cross;whiteSpace=wrap;html=1;rotation=45;fillColor=#F80029;strokeColor=#FC0D0D;" vertex="1" parent="Ct9n-sNewZhYpK1-HqBp-1">
                    <mxGeometry x="605.2" y="370" width="80" height="80" as="geometry"/>
                </mxCell>
            </root>
        </mxGraphModel>
    </diagram>
</mxfile>